# Blender v3.0.0 OBJ File: 'player.blend'
# www.blender.org
mtllib ray.mtl
o Ray_Cone.001
v 0.495455 -0.482002 -300.791321
v 0.485935 -0.578658 -300.791321
v 0.457741 -0.671600 -300.791321
v 0.411958 -0.757255 -300.791321
v 0.350343 -0.832332 -300.791321
v 0.275266 -0.893947 -300.791321
v 0.189610 -0.939730 -300.791321
v 0.096669 -0.967924 -300.791321
v 0.000013 -0.977444 -300.791321
v -0.096643 -0.967924 -300.791321
v -0.189584 -0.939730 -300.791321
v -0.275239 -0.893947 -300.791321
v -0.350317 -0.832332 -300.791321
v -0.411931 -0.757255 -300.791321
v -0.457715 -0.671600 -300.791321
v -0.485909 -0.578658 -300.791321
v -0.495428 -0.482002 -300.791321
v -0.485909 -0.385347 -300.791321
v -0.457715 -0.292405 -300.791321
v -0.411931 -0.206750 -300.791321
v -0.350317 -0.131672 -300.791321
v -0.275239 -0.070058 -300.791321
v -0.189584 -0.024274 -300.791321
v -0.096643 0.003919 -300.791321
v 0.000013 0.013439 -300.791321
v 0.096669 0.003919 -300.791321
v 0.189610 -0.024274 -300.791321
v 0.275266 -0.070058 -300.791321
v 0.350343 -0.131672 -300.791321
v 0.411958 -0.206750 -300.791321
v 0.457741 -0.292405 -300.791321
v 0.485935 -0.385347 -300.791321
v 0.025196 -0.482002 -0.396362
v 0.024712 -0.486917 -0.396362
v 0.023278 -0.491644 -0.396362
v 0.020950 -0.496000 -0.396362
v 0.017816 -0.499818 -0.396362
v 0.013998 -0.502951 -0.396362
v 0.009642 -0.505280 -0.396362
v 0.004915 -0.506713 -0.396362
v -0.000000 -0.507198 -0.396362
v -0.004915 -0.506713 -0.396362
v -0.009642 -0.505280 -0.396362
v -0.013998 -0.502951 -0.396362
v -0.017816 -0.499818 -0.396362
v -0.020950 -0.496000 -0.396362
v -0.023278 -0.491644 -0.396362
v -0.024712 -0.486917 -0.396362
v -0.025196 -0.482002 -0.396362
v -0.024712 -0.477086 -0.396362
v -0.023278 -0.472360 -0.396362
v -0.020950 -0.468004 -0.396362
v -0.017816 -0.464186 -0.396362
v -0.013998 -0.461052 -0.396362
v -0.009642 -0.458724 -0.396362
v -0.004915 -0.457290 -0.396362
v -0.000000 -0.456806 -0.396362
v 0.004915 -0.457290 -0.396362
v 0.009642 -0.458724 -0.396362
v 0.013998 -0.461052 -0.396362
v 0.017816 -0.464186 -0.396362
v 0.020950 -0.468004 -0.396362
v 0.023278 -0.472360 -0.396362
v 0.024712 -0.477086 -0.396362
vt 0.949553 0.383337
vt 0.971731 0.341844
vt 0.971731 0.341844
vt 0.949553 0.383337
vt 0.514612 0.296822
vt 0.528269 0.341844
vt 0.528269 0.341844
vt 0.514612 0.296822
vt 0.658156 0.028269
vt 0.616663 0.050447
vt 0.616663 0.050447
vt 0.658156 0.028269
vt 0.949553 0.116663
vt 0.919706 0.080294
vt 0.919706 0.080294
vt 0.949553 0.116663
vt 0.703178 0.485388
vt 0.750000 0.490000
vt 0.750000 0.490000
vt 0.703178 0.485388
vt 0.919706 0.419706
vt 0.919706 0.419706
vt 0.510000 0.250000
vt 0.510000 0.250000
vt 0.703178 0.014612
vt 0.703178 0.014612
vt 0.971731 0.158156
vt 0.971731 0.158156
vt 0.658156 0.471731
vt 0.658156 0.471731
vt 0.883337 0.449553
vt 0.883337 0.449553
vt 0.514612 0.203178
vt 0.514612 0.203178
vt 0.750000 0.010000
vt 0.750000 0.010000
vt 0.985388 0.203178
vt 0.985388 0.203178
vt 0.616663 0.449553
vt 0.616663 0.449553
vt 0.841844 0.471731
vt 0.841844 0.471731
vt 0.528269 0.158156
vt 0.528269 0.158156
vt 0.796822 0.014612
vt 0.796822 0.014612
vt 0.990000 0.250000
vt 0.990000 0.250000
vt 0.580294 0.419706
vt 0.580294 0.419706
vt 0.796822 0.485388
vt 0.796822 0.485388
vt 0.550447 0.116663
vt 0.550447 0.116663
vt 0.841844 0.028269
vt 0.841844 0.028269
vt 0.985388 0.296822
vt 0.985388 0.296822
vt 0.550447 0.383337
vt 0.550447 0.383337
vt 0.580294 0.080294
vt 0.580294 0.080294
vt 0.883337 0.050447
vt 0.883337 0.050447
vn -0.5556 0.8314 -0.0016
vn -0.3827 0.9239 -0.0016
vn -0.1951 -0.9808 -0.0016
vn -0.3827 -0.9239 -0.0016
vn 0.9239 -0.3827 -0.0016
vn 0.8314 -0.5556 -0.0016
vn 0.5556 0.8314 -0.0016
vn 0.7071 0.7071 -0.0016
vn -0.9808 -0.1951 -0.0016
vn -1.0000 0.0000 -0.0016
vn -0.7071 0.7071 -0.0016
vn 0.0000 -1.0000 -0.0016
vn 0.9808 -0.1951 -0.0016
vn 0.3827 0.9239 -0.0016
vn -0.9239 -0.3827 -0.0016
vn -0.8314 0.5556 -0.0016
vn 0.1951 -0.9808 -0.0016
vn 1.0000 0.0000 -0.0016
vn 0.1951 0.9808 -0.0016
vn -0.8314 -0.5556 -0.0016
vn -0.9239 0.3827 -0.0016
vn 0.3827 -0.9239 -0.0016
vn 0.9808 0.1951 -0.0016
vn 0.0000 1.0000 -0.0016
vn -0.7071 -0.7071 -0.0016
vn -0.9808 0.1951 -0.0016
vn 0.5556 -0.8314 -0.0016
vn 0.9239 0.3827 -0.0016
vn -0.1951 0.9808 -0.0016
vn -0.5556 -0.8314 -0.0016
vn 0.7071 -0.7071 -0.0016
vn 0.8314 0.5556 -0.0016
usemtl Ray
s 1
f 6/1/1 7/2/2 39/3/2 38/4/1
f 26/5/3 27/6/4 59/7/4 58/8/3
f 19/9/5 20/10/6 52/11/6 51/12/5
f 12/13/7 13/14/8 45/15/8 44/16/7
f 32/17/9 1/18/10 33/19/10 64/20/9
f 5/21/11 6/1/1 38/4/1 37/22/11
f 25/23/12 26/5/3 58/8/3 57/24/12
f 18/25/13 19/9/5 51/12/5 50/26/13
f 11/27/14 12/13/7 44/16/7 43/28/14
f 31/29/15 32/17/9 64/20/9 63/30/15
f 4/31/16 5/21/11 37/22/11 36/32/16
f 24/33/17 25/23/12 57/24/12 56/34/17
f 17/35/18 18/25/13 50/26/13 49/36/18
f 10/37/19 11/27/14 43/28/14 42/38/19
f 30/39/20 31/29/15 63/30/15 62/40/20
f 3/41/21 4/31/16 36/32/16 35/42/21
f 23/43/22 24/33/17 56/34/17 55/44/22
f 16/45/23 17/35/18 49/36/18 48/46/23
f 9/47/24 10/37/19 42/38/19 41/48/24
f 29/49/25 30/39/20 62/40/20 61/50/25
f 2/51/26 3/41/21 35/42/21 34/52/26
f 22/53/27 23/43/22 55/44/22 54/54/27
f 15/55/28 16/45/23 48/46/23 47/56/28
f 8/57/29 9/47/24 41/48/24 40/58/29
f 28/59/30 29/49/25 61/50/25 60/60/30
f 21/61/31 22/53/27 54/54/27 53/62/31
f 14/63/32 15/55/28 47/56/28 46/64/32
f 1/18/10 2/51/26 34/52/26 33/19/10
f 7/2/2 8/57/29 40/58/29 39/3/2
f 27/6/4 28/59/30 60/60/30 59/7/4
f 13/14/8 14/63/32 46/64/32 45/15/8
f 20/10/6 21/61/31 53/62/31 52/11/6
