# Blender v3.0.0 OBJ File: 'map.blend'
# www.blender.org
mtllib shed.mtl
o Shed_Plane.001
v 8.833647 0.000000 -17.667294
v -8.833647 0.000000 -17.667294
v 0.000000 8.515670 -17.667294
v 8.833647 0.000000 -42.719387
v -8.833650 0.000000 -42.719387
v 6.614063 12.288143 -17.089958
v 6.314485 12.300382 -17.077888
v 8.741756 8.813595 -42.719398
v -8.741758 8.813595 -42.719387
v 3.510271 15.354750 -17.077888
v 3.679737 15.488479 -17.089958
v -8.832846 8.518043 -17.089958
v -8.537587 8.515667 -17.077887
v 8.217418 8.515670 -17.077888
v -6.786374 12.378655 -42.719391
v -3.759486 15.506736 -42.719395
v -2.947008 15.987769 -42.719398
v 2.947006 15.987768 -42.719398
v 3.759480 15.506739 -42.719398
v 6.786373 12.378655 -42.719398
v 8.509299 8.518042 -17.089956
v -1.005281 16.662113 -42.719398
v 1.005280 16.662113 -42.719398
v 0.000000 12.576544 -17.667294
v 8.217418 8.515670 -17.667297
v 8.515632 8.518040 -17.667297
v -8.537587 8.515667 -17.667292
v -8.833649 8.518040 -17.667292
v 6.314485 12.300382 -17.667299
v 3.510271 15.354750 -17.667299
v 2.926080 15.953123 -17.089958
v 2.789609 15.795552 -17.667299
v -2.806578 15.823351 -17.667297
v -2.943347 15.981589 -17.089958
v -3.574226 15.369514 -17.667297
v -3.745454 15.503249 -17.089958
v -6.756088 12.362152 -17.089958
v -6.452794 12.371630 -17.667294
v 1.005281 16.662096 -17.089958
v 0.958031 16.470066 -17.667299
v -1.005282 16.662096 -17.089958
v -0.958075 16.470242 -17.667299
v -6.452794 12.371630 -17.077887
v -3.574226 15.369514 -17.077888
v 2.789609 15.795552 -17.077888
v -2.806578 15.823351 -17.077888
v 0.958031 16.470066 -17.077888
v -0.958075 16.470242 -17.077888
vt 0.784650 0.734259
vt 0.784650 0.843581
vt 0.635614 0.838064
vt 0.587463 0.734259
vt 0.719828 0.930986
vt 0.702098 0.918769
vt 0.974444 0.734259
vt 0.930492 0.836147
vt 0.202902 0.695648
vt 0.205078 0.023437
vt 0.001953 0.027344
vt 0.005868 0.698084
vt 0.396887 0.036706
vt 0.402394 0.708533
vt 0.202858 0.709530
vt 0.203202 0.033621
vt 0.806777 0.948397
vt 0.762522 0.948402
vt 0.425928 0.019066
vt 0.426409 0.709182
vt 0.408971 0.709190
vt 0.407130 0.019075
vt 0.470821 0.019053
vt 0.517257 0.019053
vt 0.517258 0.709168
vt 0.470821 0.709168
vt 0.865725 0.918371
vt 0.849080 0.930239
vt 0.587565 0.709168
vt 0.580790 0.019053
vt 0.670162 0.019064
vt 0.670458 0.709179
vt 0.743564 0.019075
vt 0.743564 0.709188
vt 0.830843 0.709186
vt 0.830690 0.019053
vt 0.903264 0.019178
vt 0.905074 0.709293
vt 0.562058 0.019066
vt 0.561974 0.709182
vt 0.580791 0.019075
vt 0.580467 0.709190
vt 0.504997 0.881495
vt 0.505086 0.961856
vt 0.491474 0.961793
vt 0.491384 0.881430
vt 0.518699 0.859169
vt 0.518699 0.960436
vt 0.505086 0.960438
vt 0.505086 0.859169
vt 0.743564 0.709293
vt 0.748140 0.019129
vt 0.866030 0.931540
vt 0.930798 0.849314
vt 0.937717 0.848991
vt 0.869945 0.935147
vt 0.635920 0.851230
vt 0.702404 0.931936
vt 0.698449 0.935542
vt 0.628914 0.850984
vt 0.849386 0.943405
vt 0.852538 0.947655
vt 0.974749 0.747426
vt 0.981490 0.747497
vt 0.720134 0.944155
vt 0.716975 0.948420
vt 0.587769 0.747426
vt 0.580949 0.747497
vt 0.808174 0.966740
vt 0.807083 0.961564
vt 0.762827 0.961568
vt 0.761737 0.966740
vt 0.518699 0.777865
vt 0.505086 0.777865
vt 0.505086 0.777928
vt 0.491474 0.777865
vt 0.436083 0.975155
vt 0.035378 0.975155
vt 0.035378 0.745844
vt 0.443429 0.745844
vn 0.0000 0.0000 1.0000
vn 0.9997 0.0236 0.0047
vn -1.0000 0.0053 -0.0018
vn 0.5169 0.8560 0.0019
vn 0.0000 1.0000 0.0000
vn -0.8784 0.4780 0.0019
vn -0.7203 0.6937 0.0009
vn 0.7279 0.6857 0.0050
vn 0.3372 0.9414 0.0008
vn -0.3297 0.9441 0.0001
vn -0.5108 0.8597 0.0003
vn 0.7213 -0.6926 0.0000
vn -0.8934 -0.4492 0.0000
vn 0.8854 0.4648 0.0105
vn 0.0415 0.0381 0.9984
vn -0.0406 0.0389 0.9984
vn 0.0309 0.0503 0.9983
vn 0.0411 0.0207 0.9989
vn -0.0301 0.0507 0.9983
vn -0.0406 0.0219 0.9989
vn 0.0213 0.0577 0.9981
vn 0.0000 0.0628 0.9980
vn -0.0204 0.0581 0.9981
vn -0.7366 -0.6763 0.0000
vn 0.8797 -0.4756 0.0000
usemtl Farm
s off
f 3/1/1 24/2/1 38/3/1 27/4/1
f 33/5/1 35/6/1 24/2/1
f 3/1/1 25/7/1 29/8/1 24/2/1
f 1/9/2 4/10/2 8/11/2 26/12/2
f 5/13/3 2/14/3 28/15/3 9/16/3
f 40/17/1 42/18/1 24/2/1
f 18/19/4 31/20/4 11/21/4 19/22/4
f 23/23/5 22/24/5 41/25/5 39/26/5
f 30/27/1 32/28/1 24/2/1
f 40/17/1 24/2/1 32/28/1
f 42/18/1 33/5/1 24/2/1
f 9/29/6 12/30/6 37/31/6 15/32/6
f 29/8/1 30/27/1 24/2/1
f 15/32/7 37/31/7 36/33/7 16/34/7
f 6/35/8 20/36/8 19/37/8 11/38/8
f 31/20/9 18/19/9 23/23/9 39/26/9
f 17/39/10 34/40/10 41/25/10 22/24/10
f 35/6/1 38/3/1 24/2/1
f 34/40/11 17/39/11 16/41/11 36/42/11
f 38/43/12 35/44/12 44/45/12 43/46/12
f 29/47/13 25/48/13 14/49/13 7/50/13
f 21/51/14 8/52/14 20/36/14 6/35/14
f 10/53/15 7/54/15 6/55/15 11/56/15
f 43/57/16 44/58/16 36/59/16 37/60/16
f 45/61/17 10/53/17 11/56/17 31/62/17
f 7/54/18 14/63/18 21/64/18 6/55/18
f 44/58/19 46/65/19 34/66/19 36/59/19
f 13/67/20 43/57/20 37/60/20 12/68/20
f 31/62/21 39/69/21 47/70/21 45/61/21
f 48/71/22 47/70/22 39/69/22 41/72/22
f 46/65/23 48/71/23 41/72/23 34/66/23
f 30/73/24 29/47/24 7/50/24 10/74/24
f 27/75/25 38/43/25 43/46/25 13/76/25
f 26/77/1 28/78/1 2/79/1 1/80/1
