# Blender v3.0.0 OBJ File: 'map.blend'
# www.blender.org
mtllib tree.mtl
o Tree_Cube.002
v -1.555944 -0.108261 1.555944
v -1.555944 7.460362 1.555944
v -1.555944 -0.108261 -1.555945
v -1.555944 7.460362 -1.555945
v 1.555945 -0.108261 1.555944
v 1.555945 7.460362 1.555944
v 1.555945 -0.108261 -1.555945
v 1.555945 7.460362 -1.555945
v -3.617393 6.486848 3.617395
v -3.617393 13.721637 3.617395
v -3.617393 6.486848 -3.617394
v -3.617393 13.721637 -3.617394
v 3.617395 6.486848 3.617395
v 3.617395 13.721637 3.617395
v 3.617395 6.486848 -3.617394
v 3.617395 13.721637 -3.617394
vt 0.387494 -0.060920
vt 0.387494 0.486346
vt 0.612506 0.486346
vt 0.612506 -0.060920
vt 0.387494 -0.060920
vt 0.387494 0.486346
vt 0.612506 0.486346
vt 0.612506 -0.060920
vt 0.387494 0.486346
vt 0.387494 -0.060920
vt 0.612506 -0.060920
vt 0.612506 0.486346
vt 0.044244 0.045599
vt 0.044244 0.957111
vt 0.955756 0.957111
vt 0.955756 0.045599
vt 0.044244 0.045599
vt 0.044244 0.957111
vt 0.955756 0.957111
vt 0.955756 0.045599
vt 0.044244 0.957111
vt 0.044244 0.045599
vt 0.955756 0.045599
vt 0.955756 0.957111
vt 0.955756 0.955819
vt 0.044244 0.955819
vt 0.044244 0.044307
vt 0.955756 0.044307
vn -1.0000 0.0000 0.0000
vn 0.0000 0.0000 -1.0000
vn 1.0000 0.0000 0.0000
vn 0.0000 0.0000 1.0000
vn 0.0000 1.0000 0.0000
usemtl Log
s off
f 1/1/1 2/2/1 4/3/1 3/4/1
f 3/5/2 4/6/2 8/7/2 7/8/2
f 7/8/3 8/7/3 6/9/3 5/10/3
f 5/11/4 6/12/4 2/2/4 1/1/4
usemtl Leaves
f 9/13/1 10/14/1 12/15/1 11/16/1
f 11/17/2 12/18/2 16/19/2 15/20/2
f 15/20/3 16/19/3 14/21/3 13/22/3
f 13/23/4 14/24/4 10/14/4 9/13/4
f 16/25/5 12/26/5 10/27/5 14/28/5
