# Blender v3.0.0 OBJ File: 'enemies.blend'
# www.blender.org
mtllib virus_ico_large.mtl
o Virus_Ico_Large_Icosphere.003
v -0.167207 -2.842109 0.121484
v -0.167207 -2.842109 -0.121484
v 0.063869 -2.842108 -0.196565
v 0.206683 -2.842107 -0.000000
v 0.063869 -2.842108 0.196565
v 2.067460 -1.420591 1.351918
v 2.195196 -1.213909 1.351919
v 2.131329 -1.086172 1.548482
v 1.964120 -1.213909 1.669966
v 1.924647 -1.420591 1.548483
v -0.877947 -1.420591 2.308954
v -0.646870 -1.420591 2.384033
v -0.607400 -1.213909 2.505517
v -0.814079 -1.086170 2.505517
v -0.981287 -1.213909 2.384034
v -2.467273 -1.420591 -0.121484
v -2.467273 -1.420591 0.121484
v -2.570614 -1.213909 0.196562
v -2.634481 -1.086169 -0.000000
v -2.570614 -1.213909 -0.196562
v -0.646870 -1.420591 -2.384033
v -0.877947 -1.420591 -2.308954
v -0.981287 -1.213909 -2.384034
v -0.814079 -1.086170 -2.505517
v -0.607400 -1.213909 -2.505517
v 2.195196 -1.213909 -1.351919
v 2.067460 -1.420591 -1.351918
v 1.924647 -1.420591 -1.548483
v 1.964120 -1.213909 -1.669966
v 2.131329 -1.086172 -1.548483
v 0.607401 1.213909 2.505517
v 0.814080 1.086170 2.505517
v 0.981288 1.213909 2.384034
v 0.877948 1.420590 2.308954
v 0.646871 1.420591 2.384033
v -2.195195 1.213909 1.351919
v -2.131328 1.086172 1.548482
v -1.964119 1.213909 1.669966
v -1.924646 1.420591 1.548483
v -2.067459 1.420590 1.351918
v -1.964119 1.213909 -1.669966
v -2.131328 1.086172 -1.548483
v -2.195195 1.213909 -1.351919
v -2.067459 1.420590 -1.351918
v -1.924646 1.420591 -1.548483
v 0.981288 1.213909 -2.384034
v 0.814080 1.086170 -2.505517
v 0.607401 1.213909 -2.505517
v 0.646871 1.420591 -2.384033
v 0.877948 1.420590 -2.308954
v 2.570615 1.213909 0.196562
v 2.634482 1.086169 -0.000000
v 2.570615 1.213909 -0.196562
v 2.467274 1.420590 -0.121484
v 2.467274 1.420590 0.121484
v -0.063868 2.842108 0.196565
v 0.167208 2.842109 0.121484
v 0.167208 2.842109 -0.121484
v -0.063868 2.842108 -0.196565
v -0.206682 2.842107 -0.000000
v -3.514671 2.315015 2.403385
v -3.642407 2.108334 2.403387
v -3.578539 1.980596 2.599950
v -3.411330 2.108334 2.721433
v -3.371858 2.315015 2.599950
v 1.199655 2.315008 4.085340
v 1.160185 2.108327 4.206825
v 1.366863 1.980588 4.206825
v 1.534072 2.108327 4.085341
v 1.430732 2.315008 4.010262
v -0.206693 4.842107 0.000001
v -0.063879 4.842108 0.196565
v 0.167197 4.842109 0.121484
v 0.167197 4.842110 -0.121483
v -0.063879 4.842108 -0.196564
v 4.256131 2.315012 0.121484
v 4.359473 2.108331 0.196562
v 4.423339 1.980591 -0.000000
v 4.359473 2.108331 -0.196562
v 4.256131 2.315012 -0.121484
v 1.430731 2.315008 -4.010262
v 1.534071 2.108327 -4.085341
v 1.366863 1.980588 -4.206825
v 1.160185 2.108327 -4.206825
v 1.199654 2.315008 -4.085340
v -3.371858 2.315015 -2.599950
v -3.411331 2.108334 -2.721433
v -3.578539 1.980596 -2.599950
v -3.642407 2.108334 -2.403386
v -3.514671 2.315015 -2.403385
v -4.359471 -2.108331 -0.196562
v -4.256130 -2.315013 -0.121484
v -4.256130 -2.315013 0.121484
v -4.359471 -2.108331 0.196562
v -4.423338 -1.980591 -0.000000
v -1.534070 -2.108327 4.085341
v -1.430731 -2.315009 4.010262
v -1.199654 -2.315009 4.085340
v -1.160184 -2.108327 4.206825
v -1.366862 -1.980588 4.206825
v 3.371859 -2.315015 2.599950
v 3.514672 -2.315015 2.403385
v 3.642408 -2.108334 2.403387
v 3.578540 -1.980596 2.599950
v 3.411331 -2.108333 2.721434
v 3.578541 -1.980596 -2.599950
v 3.642408 -2.108334 -2.403386
v 3.514672 -2.315015 -2.403385
v 3.371859 -2.315015 -2.599950
v 3.411332 -2.108333 -2.721433
v 0.063881 -4.842108 0.196565
v -0.167195 -4.842109 0.121484
v -0.167195 -4.842110 -0.121483
v 0.063881 -4.842108 -0.196564
v 0.206695 -4.842107 0.000001
v -1.160184 -2.108327 -4.206824
v -1.199654 -2.315009 -4.085340
v -1.430731 -2.315008 -4.010262
v -1.534070 -2.108327 -4.085341
v -1.366862 -1.980588 -4.206824
vt 0.285711 0.149965
vt 0.363637 0.014992
vt 0.441563 0.149965
vt 0.727273 0.014992
vt 0.805199 0.149965
vt 0.649347 0.149965
vt 0.181819 0.014992
vt 0.259745 0.149965
vt 0.103893 0.149965
vt 0.545455 0.014992
vt 0.623381 0.149965
vt 0.467529 0.149965
vt 0.103893 0.164957
vt 0.259745 0.164957
vt 0.181819 0.299929
vt 0.272728 0.172453
vt 0.350654 0.307425
vt 0.194802 0.307425
vt 0.285711 0.164957
vt 0.441563 0.164957
vt 0.363637 0.299929
vt 0.090910 0.172453
vt 0.168836 0.307425
vt 0.012983 0.307425
vt 0.818182 0.172453
vt 0.896108 0.307425
vt 0.740256 0.307425
vt 0.636364 0.172453
vt 0.714290 0.307425
vt 0.558438 0.307425
vt 0.831165 0.164957
vt 0.987017 0.164957
vt 0.909091 0.299929
vt 0.649347 0.164957
vt 0.805199 0.164957
vt 0.727273 0.299929
vt 0.467529 0.164957
vt 0.623381 0.164957
vt 0.545455 0.299929
vt 0.454546 0.172453
vt 0.532472 0.307425
vt 0.376620 0.307425
vt 0.194802 0.322417
vt 0.350654 0.322417
vt 0.272728 0.457390
vt 0.012983 0.322417
vt 0.168836 0.322417
vt 0.090910 0.457390
vt 0.740256 0.322417
vt 0.896108 0.322417
vt 0.818182 0.457390
vt 0.558438 0.322417
vt 0.714290 0.322417
vt 0.636364 0.457390
vt 0.376620 0.322417
vt 0.532472 0.322417
vt 0.454546 0.457390
vt 0.987017 0.149965
vt 0.909091 0.014992
vt 0.915583 0.011244
vt 0.993508 0.146217
vt 0.188311 0.011244
vt 0.266237 0.146217
vt 0.461038 0.146217
vt 0.538963 0.011244
vt 0.824674 0.146217
vt 0.902600 0.011244
vt 0.831165 0.149965
vt 0.642856 0.146217
vt 0.720781 0.011244
vt 0.993508 0.168705
vt 0.915582 0.303677
vt 0.175327 0.326165
vt 0.097402 0.461138
vt 0.357145 0.326165
vt 0.279219 0.461138
vt 0.902599 0.326165
vt 0.824674 0.461138
vt 0.811690 0.461138
vt 0.733765 0.326165
vt 0.629872 0.461138
vt 0.551947 0.326165
vt 0.902600 0.011244
vt 0.909091 0.014992
vt 0.259745 0.164957
vt 0.272728 0.172453
vt 0.103893 0.164957
vt 0.103893 0.149965
vt 0.805199 0.164957
vt 0.818182 0.172453
vt 0.636364 0.172453
vt 0.649347 0.164957
vt 0.467529 0.164957
vt 0.467529 0.149965
vt 0.168836 0.322417
vt 0.175327 0.326165
vt 0.896108 0.322417
vt 0.902599 0.326165
vt 0.740256 0.322417
vt 0.740256 0.307425
vt 0.532472 0.307425
vt 0.532472 0.322417
vt 0.350654 0.322417
vt 0.357145 0.326165
vt 0.097402 0.461138
vt 0.090910 0.457390
vt 0.908265 0.313489
vt 0.907438 0.314921
vt 0.896108 0.314921
vt 0.915582 0.303677
vt 0.909091 0.299929
vt 0.896108 0.307425
vt 0.012983 0.322417
vt 0.012983 0.307425
vt 0.175327 0.303677
vt 0.180992 0.313489
vt 0.180166 0.314921
vt 0.194802 0.307425
vt 0.181819 0.299929
vt 0.168836 0.307425
vt 0.194802 0.322417
vt 0.819009 0.470950
vt 0.817355 0.470950
vt 0.811690 0.461138
vt 0.818182 0.457390
vt 0.279219 0.461138
vt 0.272728 0.457390
vt 0.824674 0.461138
vt 0.636364 0.457390
vt 0.629872 0.461138
vt 0.362810 0.313489
vt 0.361984 0.314921
vt 0.350654 0.314921
vt 0.376620 0.307425
vt 0.363637 0.299929
vt 0.350654 0.307425
vt 0.376620 0.322417
vt 0.551946 0.303677
vt 0.558438 0.314921
vt 0.547108 0.314921
vt 0.558438 0.322417
vt 0.558438 0.307425
vt 0.545455 0.299929
vt 0.551947 0.326165
vt 0.733765 0.303677
vt 0.733764 0.303677
vt 0.740256 0.314921
vt 0.727273 0.299929
vt 0.714290 0.307425
vt 0.733765 0.326165
vt 0.714290 0.322417
vt 0.831165 0.157461
vt 0.819835 0.157461
vt 0.819009 0.156029
vt 0.831165 0.164957
vt 0.831165 0.149965
vt 0.805199 0.149965
vt 0.824674 0.146217
vt 0.999174 0.156030
vt 0.998347 0.157461
vt 0.987017 0.157461
vt 0.987017 0.149965
vt 0.987017 0.164957
vt 0.090910 0.172453
vt 0.993508 0.146217
vt 0.993508 0.168705
vt 0.271902 0.156030
vt 0.259745 0.157461
vt 0.266236 0.146217
vt 0.285711 0.164957
vt 0.285711 0.149965
vt 0.259745 0.149965
vt 0.266237 0.146217
vt 0.461038 0.146217
vt 0.461038 0.146217
vt 0.467529 0.157461
vt 0.441563 0.149965
vt 0.441563 0.164957
vt 0.454546 0.172453
vt 0.908265 0.001432
vt 0.909918 0.001432
vt 0.915583 0.011244
vt 0.181819 0.014992
vt 0.188311 0.011244
vt 0.720781 0.011244
vt 0.727273 0.014992
vt 0.538963 0.011244
vt 0.545455 0.014992
vt 0.649347 0.157461
vt 0.638017 0.157461
vt 0.637190 0.156030
vt 0.649347 0.149965
vt 0.642856 0.146217
vt 0.623381 0.164957
vt 0.623381 0.149965
vt 0.811690 0.461138
vt 0.829512 0.463932
vt 0.168836 0.314921
vt 0.357145 0.303677
vt 0.271075 0.143424
vt 0.271075 0.157461
vt 0.456199 0.157461
vt 0.449197 0.152464
vt 0.540106 0.309924
vt 0.551947 0.303677
vt 0.728926 0.314921
vt 0.721923 0.309924
vt 0.638017 0.143424
vt 0.649347 0.157461
vt 0.819835 0.143424
vt 0.831165 0.157461
vt 0.902599 0.303677
vn 0.6071 -0.7947 0.0000
vn -0.4911 -0.7947 -0.3568
vn 0.1876 -0.7947 0.5774
vn 0.1876 -0.7947 -0.5774
vn 0.3035 -0.1876 0.9342
vn 0.7946 0.1876 0.5774
vn 0.9822 -0.1876 0.0000
vn -0.3035 0.1876 0.9342
vn -0.9822 0.1876 0.0000
vn -0.3035 0.1876 -0.9342
vn -0.7946 -0.1876 0.5774
vn -0.7946 -0.1876 -0.5774
vn 0.3035 -0.1876 -0.9342
vn 0.7946 0.1876 -0.5774
vn 0.4911 0.7947 0.3568
vn -0.1876 0.7947 0.5774
vn -0.6071 0.7947 0.0000
vn -0.1876 0.7947 -0.5774
vn 0.4911 0.7947 -0.3568
vn -0.1625 -0.8506 0.5000
vn 0.4253 -0.8506 0.3090
vn 0.2629 -0.5257 0.8090
vn 0.8507 -0.5257 0.0000
vn 0.4253 -0.8506 -0.3090
vn -0.5257 -0.8507 0.0000
vn -0.6882 -0.5257 0.5000
vn -0.1625 -0.8506 -0.5000
vn -0.6882 -0.5257 -0.5000
vn 0.2629 -0.5257 -0.8090
vn 0.9511 -0.0000 0.3090
vn 0.9511 -0.0000 -0.3090
vn 0.0000 0.0000 1.0000
vn 0.5878 -0.0000 0.8090
vn -0.9511 0.0000 0.3090
vn -0.5878 0.0000 0.8090
vn -0.5878 0.0000 -0.8090
vn -0.9511 0.0000 -0.3090
vn 0.5878 -0.0000 -0.8090
vn 0.0000 0.0000 -1.0000
vn 0.6882 0.5257 0.5000
vn -0.2629 0.5257 0.8090
vn -0.8507 0.5257 0.0000
vn -0.2629 0.5257 -0.8090
vn 0.6882 0.5257 -0.5000
vn 0.1625 0.8506 0.5000
vn 0.5257 0.8507 0.0000
vn -0.4253 0.8506 0.3090
vn -0.4253 0.8506 -0.3090
vn 0.1625 0.8506 -0.5000
vn -0.4911 -0.7947 0.3568
vn -1.0000 -0.0000 0.0000
vn -0.0528 0.7236 0.6882
vn 0.9472 -0.2764 0.1625
vn -0.3618 0.7236 -0.5878
vn -0.6708 0.7236 -0.1625
vn -0.6708 -0.2764 -0.6882
vn -0.1382 0.8944 -0.4253
vn 0.3618 0.8944 -0.2629
vn -0.4472 0.2764 0.8506
vn 0.8618 0.2764 0.4253
vn -0.4472 0.8944 0.0000
vn 0.3090 0.0000 0.9511
vn -0.7236 0.4472 0.5257
vn 0.0528 -0.7236 0.6882
vn -0.4472 0.2764 -0.8506
vn 0.6708 0.2764 0.6882
vn -0.6382 -0.7236 -0.2629
vn 0.2764 0.4472 0.8507
vn 0.6708 -0.7236 0.1625
vn -0.9472 0.2764 0.1625
vn 0.8618 0.2764 -0.4253
vn -0.4472 -0.7236 0.5257
vn -0.0000 1.0000 0.0000
vn -0.8090 -0.0000 -0.5878
vn 1.0000 0.0000 0.0000
vn -0.8090 -0.0000 0.5878
vn 0.3090 0.0000 -0.9511
vn 0.8944 0.4472 0.0000
vn 0.3618 -0.7236 -0.5878
vn -0.1382 0.2764 0.9511
vn -0.1382 0.2764 -0.9511
vn 0.3618 -0.7236 0.5878
vn 0.2764 0.4472 -0.8507
vn -0.9472 0.2764 -0.1625
vn 0.6708 -0.7236 -0.1625
vn -0.1382 0.8944 0.4253
vn -0.4472 -0.7236 -0.5257
vn -0.7236 0.4472 -0.5257
vn 0.0528 -0.7236 -0.6882
vn 0.3618 0.8944 0.2629
vn -0.6382 -0.7236 0.2629
vn 0.6708 0.2764 -0.6882
vn -0.8944 -0.4472 0.0000
vn 0.1382 -0.2764 0.9511
vn 0.1382 -0.2764 -0.9511
vn -0.3618 0.7236 0.5878
vn 0.4472 -0.8944 0.0000
vn -0.2764 -0.4472 0.8507
vn -0.8618 -0.2764 -0.4253
vn 0.4472 0.7236 0.5257
vn 0.1382 -0.8944 -0.4253
vn -0.6708 0.7236 0.1625
vn 0.7236 -0.4472 0.5257
vn 0.4472 -0.2764 -0.8506
vn -0.6708 -0.2764 0.6882
vn 0.6382 0.7236 -0.2629
vn -0.3618 -0.8944 -0.2629
vn 0.7236 -0.4472 -0.5257
vn 0.4472 -0.2764 0.8506
vn -0.0528 0.7236 -0.6882
vn -0.3618 -0.8944 0.2629
vn 0.6382 0.7236 0.2629
vn 0.0000 -1.0000 0.0000
vn 0.8090 0.0000 0.5878
vn -0.3090 -0.0000 -0.9511
vn -0.3090 -0.0000 0.9511
vn 0.8090 0.0000 -0.5878
vn -0.2764 -0.4472 -0.8507
vn 0.1382 -0.8944 0.4253
vn 0.4472 0.7236 -0.5257
vn -0.8618 -0.2764 0.4253
vn 0.9472 -0.2764 -0.1625
vn -0.2764 -0.4472 0.8506
usemtl Body.002
s off
f 6/1/1 4/2/1 27/3/1
f 2/4/2 16/5/2 22/6/2
f 5/7/3 10/8/3 12/9/3
f 3/10/4 21/11/4 28/12/4
f 13/13/5 9/14/5 32/15/5
f 8/16/6 51/17/6 33/18/6
f 7/19/7 26/20/7 52/21/7
f 14/22/8 31/23/8 38/24/8
f 19/25/9 36/26/9 43/27/9
f 24/28/10 41/29/10 48/30/10
f 18/31/11 15/32/11 37/33/11
f 23/34/12 20/35/12 42/36/12
f 29/37/13 25/38/13 47/39/13
f 30/40/14 46/41/14 53/42/14
f 34/43/15 55/44/15 57/45/15
f 39/46/16 35/47/16 56/48/16
f 44/49/17 40/50/17 60/51/17
f 49/52/18 45/53/18 59/54/18
f 54/55/19 50/56/19 58/57/19
f 11/58/20 1/59/20 5/60/20 12/61/20
f 4/62/21 6/63/21 10/8/21 5/7/21
f 9/14/22 13/13/22 12/9/22 10/8/22
f 26/20/23 7/19/23 6/1/23 27/3/23
f 3/10/24 28/12/24 27/64/24 4/65/24
f 16/66/25 2/67/25 1/59/25 17/68/25
f 15/32/26 18/31/26 17/68/26 11/58/26
f 21/69/27 3/70/27 2/4/27 22/6/27
f 20/35/28 23/34/28 22/6/28 16/5/28
f 25/38/29 29/37/29 28/12/29 21/11/29
f 51/17/30 8/16/30 7/19/30 52/21/30
f 30/40/31 53/42/31 52/21/31 26/20/31
f 31/23/32 14/22/32 13/13/32 32/15/32
f 8/16/33 33/18/33 32/15/33 9/14/33
f 36/26/34 19/25/34 18/31/34 37/33/34
f 14/71/35 38/72/35 37/33/35 15/32/35
f 41/29/36 24/28/36 23/34/36 42/36/36
f 19/25/37 43/27/37 42/36/37 20/35/37
f 46/41/38 30/40/38 29/37/38 47/39/38
f 24/28/39 48/30/39 47/39/39 25/38/39
f 55/44/40 34/43/40 33/18/40 51/17/40
f 35/47/41 39/46/41 38/24/41 31/23/41
f 40/50/42 44/49/42 43/27/42 36/26/42
f 45/53/43 49/52/43 48/30/43 41/29/43
f 50/56/44 54/55/44 53/42/44 46/41/44
f 56/48/45 35/47/45 34/73/45 57/74/45
f 54/75/46 58/76/46 57/45/46 55/44/46
f 60/51/47 40/50/47 39/77/47 56/78/47
f 59/79/48 45/80/48 44/49/48 60/51/48
f 58/81/49 50/82/49 49/52/49 59/54/49
f 1/59/50 11/58/50 17/68/50
usemtl Tentacles.002
f 1/59/51 2/67/51 113/83/51 112/84/51
f 8/16/52 9/14/52 105/85/52 104/86/52
f 12/9/53 13/13/53 99/87/53 98/88/53
f 19/25/54 20/35/54 91/89/54 95/90/54
f 23/34/55 24/28/55 120/91/55 119/92/55
f 28/12/56 29/37/56 110/93/56 109/94/56
f 34/73/57 35/47/57 66/95/57 70/96/57
f 39/77/58 40/50/58 61/97/58 65/98/58
f 43/27/59 44/49/59 90/99/59 89/100/59
f 50/56/60 46/41/60 82/101/60 81/102/60
f 54/75/61 55/44/61 76/103/61 80/104/61
f 56/48/62 57/74/62 73/105/62 72/106/62
f 64/107/63 65/108/63 61/109/63
f 37/33/64 38/72/64 64/110/64 63/111/64
f 40/50/65 36/26/65 62/112/65 61/97/65
f 38/24/66 39/46/66 65/113/66 64/114/66
f 36/26/67 37/33/67 63/111/67 62/112/67
f 68/115/68 69/116/68 70/117/68
f 32/15/69 33/18/69 69/118/69 68/119/69
f 35/47/70 31/23/70 67/120/70 66/95/70
f 33/18/71 34/43/71 70/121/71 69/118/71
f 31/23/72 32/15/72 68/119/72 67/120/72
f 73/122/73 74/123/73 75/124/73
f 59/79/74 60/51/74 71/125/74 75/124/74
f 57/45/75 58/76/75 74/126/75 73/127/75
f 60/51/76 56/78/76 72/128/76 71/125/76
f 58/81/77 59/54/77 75/129/77 74/130/77
f 79/131/78 80/132/78 76/133/78
f 52/21/79 53/42/79 79/134/79 78/135/79
f 55/44/80 51/17/80 77/136/80 76/103/80
f 53/42/81 54/55/81 80/137/81 79/134/81
f 51/17/82 52/21/82 78/135/82 77/136/82
f 84/138/83 85/139/83 81/140/83
f 48/30/84 49/52/84 85/141/84 84/142/84
f 46/41/85 47/39/85 83/143/85 82/101/85
f 49/52/86 50/82/86 81/144/86 85/141/86
f 47/39/87 48/30/87 84/142/87 83/143/87
f 88/145/88 89/146/88 90/147/88
f 41/29/89 42/36/89 88/148/89 87/149/89
f 44/49/90 45/80/90 86/150/90 90/99/90
f 42/36/91 43/27/91 89/100/91 88/148/91
f 45/53/92 41/29/92 87/149/92 86/151/92
f 94/152/93 95/153/93 91/154/93
f 17/68/94 18/31/94 94/155/94 93/156/94
f 20/35/95 16/5/95 92/157/95 91/89/95
f 18/31/96 19/25/96 95/90/96 94/155/96
f 16/66/97 17/68/97 93/156/97 92/158/97
f 99/159/98 100/160/98 96/161/98
f 15/32/99 11/58/99 97/162/99 96/163/99
f 13/13/100 14/22/100 100/164/100 99/87/100
f 11/58/101 12/61/101 98/165/101 97/162/101
f 14/71/102 15/32/102 96/163/102 100/166/102
f 103/167/103 105/168/103 101/169/103
f 6/1/104 7/19/104 103/170/104 102/171/104
f 9/14/105 10/8/105 101/172/105 105/85/105
f 7/19/106 8/16/106 104/86/106 103/170/106
f 10/8/107 6/63/107 102/173/107 101/172/107
f 108/174/108 109/175/108 110/176/108
f 26/20/109 27/3/109 108/177/109 107/178/109
f 29/37/110 30/40/110 106/179/110 110/93/110
f 27/64/111 28/12/111 109/94/111 108/174/111
f 30/40/112 26/20/112 107/178/112 106/179/112
f 114/180/113 115/181/113 111/182/113
f 4/62/114 5/7/114 111/183/114 115/184/114
f 2/4/115 3/70/115 114/185/115 113/186/115
f 5/60/116 1/59/116 112/84/116 111/182/116
f 3/10/117 4/65/117 115/187/117 114/188/117
f 119/189/118 120/190/118 116/191/118
f 21/69/119 22/6/119 118/192/119 117/193/119
f 24/28/120 25/38/120 116/194/120 120/91/120
f 22/6/121 23/34/121 119/92/121 118/192/121
f 25/38/122 21/11/122 117/195/122 116/194/122
f 71/196/73 72/197/73 75/124/73
f 72/197/73 73/122/73 75/124/73
f 66/198/68 67/120/68 70/117/68
f 67/120/68 68/115/68 70/117/68
f 76/133/78 77/136/78 79/131/78
f 77/136/78 78/199/78 79/131/78
f 101/169/103 102/200/103 103/167/103
f 103/167/103 104/201/103 105/168/103
f 111/182/113 112/84/113 113/83/113
f 113/83/113 114/180/113 111/182/113
f 106/202/108 107/203/108 110/176/108
f 107/203/108 108/174/108 110/176/108
f 96/161/98 97/162/98 98/165/98
f 98/165/123 99/159/123 96/161/123
f 81/140/83 82/204/83 83/205/83
f 83/205/83 84/138/83 81/140/83
f 86/206/88 87/207/88 90/147/88
f 87/207/88 88/145/88 90/147/88
f 116/191/118 117/208/118 118/209/118
f 118/209/118 119/189/118 116/191/118
f 91/154/93 92/210/93 93/211/93
f 93/211/93 94/152/93 91/154/93
f 61/109/63 62/112/63 63/212/63
f 63/212/63 64/107/63 61/109/63
